<?xml version="1.0" encoding="utf-8"?>
<!-- Generator: Adobe Illustrator 21.0.0, SVG Export Plug-In . SVG Version: 6.00 Build 0)  -->
<svg version="1.1" id="图层_1" xmlns="http://www.w3.org/2000/svg" xmlns:xlink="http://www.w3.org/1999/xlink" x="0px" y="0px"
	 viewBox="0 0 900 900" style="enable-background:new 0 0 900 900;" xml:space="preserve">
<style type="text/css">
	.st0{fill:#070707;}
</style>
<g>
	<path class="st0" d="M179.6,252c17.9,0,35.8,0,53.7,0c42.8,0,85.6,0,128.4,0c51.8,0,103.5,0,155.3,0c44.9,0,89.8,0,134.7,0
		c21.7,0,43.5,0.6,65.2,0c0.3,0,0.6,0,0.9,0c7.8,0,15.4-6.9,15-15c-0.4-8.1-6.6-15-15-15c-17.9,0-35.8,0-53.7,0
		c-42.8,0-85.6,0-128.4,0c-51.8,0-103.5,0-155.3,0c-44.9,0-89.8,0-134.7,0c-21.7,0-43.5-0.6-65.2,0c-0.3,0-0.6,0-0.9,0
		c-7.8,0-15.4,6.9-15,15C164.9,245.1,171.2,252,179.6,252L179.6,252z"/>
</g>
<g>
	<path class="st0" d="M449,540c7.8,0,15.4-6.9,15-15c-0.4-8.1-6.6-15-15-15c-7.8,0-15.4,6.9-15,15C434.4,533.1,440.6,540,449,540
		L449,540z"/>
</g>
<g>
	<path class="st0" d="M125,340.4c27.1,0,54.1,0,81.2,0c43.3,0,86.6,0,130,0c9.9,0,19.8,0,29.8,0c-5-5-10-10-15-15c0,13,0,26,0,39.1
		c0,31.1,0,62.2,0,93.3c0,37.6,0,75.2,0,112.8c0,32.7,0,65.3,0,98c0,15.8-0.5,31.8,0,47.6c0,0.2,0,0.4,0,0.7c0,7.8,6.9,15.4,15,15
		c8.1-0.4,15-6.6,15-15c0-13,0-26,0-39.1c0-31.1,0-62.2,0-93.3c0-37.6,0-75.2,0-112.8c0-32.7,0-65.3,0-98c0-15.8,0.5-31.8,0-47.6
		c0-0.2,0-0.4,0-0.7c0-8.1-6.9-15-15-15c-27.1,0-54.1,0-81.2,0c-43.3,0-86.6,0-130,0c-9.9,0-19.8,0-29.8,0c-7.8,0-15.4,6.9-15,15
		C110.4,333.6,116.6,340.4,125,340.4L125,340.4z"/>
</g>
<g>
	<path class="st0" d="M778,310.4c-27.1,0-54.1,0-81.2,0c-43.3,0-86.6,0-130,0c-9.9,0-19.8,0-29.8,0c-8.1,0-15,6.9-15,15
		c0,13,0,26,0,39.1c0,31.1,0,62.2,0,93.3c0,37.6,0,75.2,0,112.8c0,32.7,0,65.3,0,98c0,15.8-0.5,31.8,0,47.6c0,0.2,0,0.4,0,0.7
		c0,7.8,6.9,15.4,15,15c8.1-0.4,15-6.6,15-15c0-13,0-26,0-39.1c0-31.1,0-62.2,0-93.3c0-37.6,0-75.2,0-112.8c0-32.7,0-65.3,0-98
		c0-15.8,0.9-31.8,0-47.6c0-0.2,0-0.4,0-0.7c-5,5-10,10-15,15c27.1,0,54.1,0,81.2,0c43.3,0,86.6,0,130,0c9.9,0,19.8,0,29.8,0
		c7.8,0,15.4-6.9,15-15C792.6,317.3,786.4,310.4,778,310.4L778,310.4z"/>
</g>
<g>
	<path class="st0" d="M450.6,252c7.8,0,15.4-6.9,15-15c-0.4-8.1-6.6-15-15-15c-7.8,0-15.4,6.9-15,15
		C435.9,245.1,442.1,252,450.6,252L450.6,252z"/>
</g>
<g>
	<path class="st0" d="M463.7,779c0-18,0-36.1,0-54.1c0-43.1,0-86.2,0-129.3c0-52.1,0-104.3,0-156.4c0-45.2,0-90.4,0-135.6
		c0-21.9,0.6-43.8,0-65.6c0-0.3,0-0.6,0-0.9c0-7.8-6.9-15.4-15-15c-8.1,0.4-15,6.6-15,15c0,18,0,36.1,0,54.1c0,43.1,0,86.2,0,129.3
		c0,52.1,0,104.3,0,156.4c0,45.2,0,90.4,0,135.6c0,21.9-0.6,43.8,0,65.6c0,0.3,0,0.6,0,0.9c0,7.8,6.9,15.4,15,15
		C456.8,793.6,463.7,787.4,463.7,779L463.7,779z"/>
</g>
</svg>
